<svg width="39" height="20" viewBox="0 0 39 20" fill="none" xmlns="http://www.w3.org/2000/svg">
<rect width="39" height="20" rx="3" fill="#4EA4DC"/>
<path d="M6.8125 11.6125H10.0235V12.594H6.8125V11.6125ZM17.4412 15.116V16H12.4492V15.116H14.4447V8.7655C14.4447 8.57483 14.4512 8.382 14.4642 8.187L12.8067 9.6105C12.7504 9.65817 12.6941 9.6885 12.6377 9.7015C12.5814 9.71017 12.5294 9.71017 12.4817 9.7015C12.4341 9.69283 12.3886 9.6755 12.3452 9.6495C12.3062 9.6235 12.2759 9.59533 12.2542 9.565L11.8902 9.0645L14.6657 6.666H15.6082V15.116H17.4412ZM25.5152 11.346C25.5152 12.1607 25.4264 12.867 25.2487 13.465C25.0754 14.0587 24.8371 14.5505 24.5337 14.9405C24.2304 15.3305 23.8707 15.6208 23.4547 15.8115C23.0431 16.0022 22.6011 16.0975 22.1287 16.0975C21.6521 16.0975 21.2079 16.0022 20.7962 15.8115C20.3889 15.6208 20.0336 15.3305 19.7302 14.9405C19.4269 14.5505 19.1886 14.0587 19.0152 13.465C18.8419 12.867 18.7552 12.1607 18.7552 11.346C18.7552 10.5313 18.8419 9.825 19.0152 9.227C19.1886 8.629 19.4269 8.135 19.7302 7.745C20.0336 7.35067 20.3889 7.05817 20.7962 6.8675C21.2079 6.67683 21.6521 6.5815 22.1287 6.5815C22.6011 6.5815 23.0431 6.67683 23.4547 6.8675C23.8707 7.05817 24.2304 7.35067 24.5337 7.745C24.8371 8.135 25.0754 8.629 25.2487 9.227C25.4264 9.825 25.5152 10.5313 25.5152 11.346ZM24.3127 11.346C24.3127 10.6353 24.2521 10.0395 24.1307 9.5585C24.0137 9.07317 23.8534 8.68317 23.6497 8.3885C23.4504 8.09383 23.2186 7.88367 22.9542 7.758C22.6899 7.628 22.4147 7.563 22.1287 7.563C21.8427 7.563 21.5676 7.628 21.3032 7.758C21.0389 7.88367 20.8071 8.09383 20.6077 8.3885C20.4084 8.68317 20.2481 9.07317 20.1267 9.5585C20.0097 10.0395 19.9512 10.6353 19.9512 11.346C19.9512 12.0567 20.0097 12.6525 20.1267 13.1335C20.2481 13.6145 20.4084 14.0023 20.6077 14.297C20.8071 14.5917 21.0389 14.804 21.3032 14.934C21.5676 15.0597 21.8427 15.1225 22.1287 15.1225C22.4147 15.1225 22.6899 15.0597 22.9542 14.934C23.2186 14.804 23.4504 14.5917 23.6497 14.297C23.8534 14.0023 24.0137 13.6145 24.1307 13.1335C24.2521 12.6525 24.3127 12.0567 24.3127 11.346ZM30.5993 8.9345C30.5993 9.2985 30.5429 9.62567 30.4303 9.916C30.3176 10.202 30.1659 10.4447 29.9753 10.644C29.7889 10.839 29.5701 10.9885 29.3188 11.0925C29.0718 11.1965 28.8096 11.2485 28.5323 11.2485C28.2419 11.2485 27.9711 11.1965 27.7198 11.0925C27.4684 10.9885 27.2496 10.839 27.0633 10.644C26.8813 10.4447 26.7383 10.202 26.6343 9.916C26.5303 9.62567 26.4783 9.2985 26.4783 8.9345C26.4783 8.56183 26.5303 8.23033 26.6343 7.94C26.7383 7.64967 26.8813 7.40483 27.0633 7.2055C27.2496 7.00617 27.4684 6.8545 27.7198 6.7505C27.9711 6.6465 28.2419 6.5945 28.5323 6.5945C28.8269 6.5945 29.0999 6.6465 29.3513 6.7505C29.6026 6.8545 29.8214 7.00617 30.0078 7.2055C30.1941 7.40483 30.3393 7.64967 30.4433 7.94C30.5473 8.23033 30.5993 8.56183 30.5993 8.9345ZM29.7023 8.9345C29.7023 8.6485 29.6719 8.40583 29.6113 8.2065C29.5506 8.00717 29.4661 7.84467 29.3578 7.719C29.2538 7.589 29.1303 7.49583 28.9873 7.4395C28.8443 7.38317 28.6926 7.355 28.5323 7.355C28.3719 7.355 28.2224 7.38317 28.0838 7.4395C27.9451 7.49583 27.8238 7.589 27.7198 7.719C27.6158 7.84467 27.5334 8.00717 27.4728 8.2065C27.4121 8.40583 27.3818 8.6485 27.3818 8.9345C27.3818 9.21617 27.4121 9.45667 27.4728 9.656C27.5334 9.851 27.6158 10.0113 27.7198 10.137C27.8238 10.2583 27.9451 10.3472 28.0838 10.4035C28.2224 10.4555 28.3719 10.4815 28.5323 10.4815C28.6926 10.4815 28.8443 10.4555 28.9873 10.4035C29.1303 10.3472 29.2538 10.2583 29.3578 10.137C29.4661 10.0113 29.5506 9.851 29.6113 9.656C29.6719 9.45667 29.7023 9.21617 29.7023 8.9345ZM33.8948 6.8805C33.9381 6.8285 33.9879 6.783 34.0443 6.744C34.1049 6.705 34.1851 6.6855 34.2848 6.6855H35.1233L28.3113 15.8115C28.2723 15.8678 28.2224 15.9133 28.1618 15.948C28.1011 15.9827 28.0274 16 27.9408 16H27.0893L33.8948 6.8805ZM35.7538 13.803C35.7538 14.167 35.6974 14.492 35.5848 14.778C35.4721 15.064 35.3204 15.3067 35.1298 15.506C34.9434 15.701 34.7246 15.8505 34.4733 15.9545C34.2263 16.0585 33.9641 16.1105 33.6868 16.1105C33.3921 16.1105 33.1191 16.0585 32.8678 15.9545C32.6208 15.8505 32.4041 15.701 32.2178 15.506C32.0358 15.3067 31.8928 15.064 31.7888 14.778C31.6848 14.492 31.6328 14.167 31.6328 13.803C31.6328 13.4303 31.6848 13.0988 31.7888 12.8085C31.8928 12.5138 32.0358 12.2668 32.2178 12.0675C32.4041 11.8682 32.6208 11.7165 32.8678 11.6125C33.1191 11.5085 33.3921 11.4565 33.6868 11.4565C33.9771 11.4565 34.2479 11.5085 34.4993 11.6125C34.7549 11.7165 34.9738 11.8682 35.1558 12.0675C35.3421 12.2668 35.4873 12.5138 35.5913 12.8085C35.6996 13.0988 35.7538 13.4303 35.7538 13.803ZM34.8568 13.803C34.8568 13.517 34.8264 13.2743 34.7658 13.075C34.7051 12.8713 34.6206 12.7067 34.5123 12.581C34.4083 12.4553 34.2848 12.3643 34.1418 12.308C33.9988 12.2517 33.8471 12.2235 33.6868 12.2235C33.5264 12.2235 33.3748 12.2517 33.2318 12.308C33.0931 12.3643 32.9718 12.4553 32.8678 12.581C32.7638 12.7067 32.6814 12.8713 32.6207 13.075C32.5644 13.2743 32.5363 13.517 32.5363 13.803C32.5363 14.0847 32.5644 14.323 32.6207 14.518C32.6814 14.713 32.7638 14.8733 32.8678 14.999C32.9718 15.1203 33.0931 15.2092 33.2318 15.2655C33.3748 15.3175 33.5264 15.3435 33.6868 15.3435C33.8471 15.3435 33.9988 15.3175 34.1418 15.2655C34.2848 15.2092 34.4083 15.1203 34.5123 14.999C34.6206 14.8733 34.7051 14.713 34.7658 14.518C34.8264 14.323 34.8568 14.0847 34.8568 13.803Z" fill="white"/>
</svg>
