<svg width="39" height="20" viewBox="0 0 39 20" fill="none" xmlns="http://www.w3.org/2000/svg">
<rect width="39" height="20" rx="3" fill="#4EA4DC"/>
<path d="M6.8125 11.6125H10.0235V12.594H6.8125V11.6125ZM15.5692 12.6395V8.798C15.5692 8.68533 15.5736 8.56183 15.5822 8.4275C15.5909 8.29317 15.6039 8.15667 15.6212 8.018L12.2282 12.6395H15.5692ZM17.9937 12.6395V13.3025C17.9937 13.3718 17.9721 13.4303 17.9287 13.478C17.8897 13.5257 17.8269 13.5495 17.7402 13.5495H16.5832V16H15.5692V13.5495H11.4352C11.3486 13.5495 11.2727 13.5257 11.2077 13.478C11.1471 13.426 11.1081 13.3632 11.0907 13.2895L10.9737 12.698L15.5042 6.6855H16.5832V12.6395H17.9937ZM22.1352 15.181C22.4386 15.181 22.7094 15.1398 22.9477 15.0575C23.1904 14.9708 23.3941 14.8517 23.5587 14.7C23.7277 14.544 23.8556 14.3598 23.9422 14.1475C24.0332 13.9308 24.0787 13.6925 24.0787 13.4325C24.0787 13.1118 24.0246 12.8388 23.9162 12.6135C23.8122 12.3838 23.6692 12.1975 23.4872 12.0545C23.3096 11.9115 23.1037 11.8075 22.8697 11.7425C22.6357 11.6732 22.3909 11.6385 22.1352 11.6385C21.8796 11.6385 21.6347 11.6732 21.4007 11.7425C21.1667 11.8075 20.9587 11.9115 20.7767 12.0545C20.5991 12.1975 20.4561 12.3838 20.3477 12.6135C20.2437 12.8388 20.1917 13.1118 20.1917 13.4325C20.1917 13.6925 20.2351 13.9308 20.3217 14.1475C20.4127 14.3598 20.5406 14.544 20.7052 14.7C20.8742 14.8517 21.0779 14.9708 21.3162 15.0575C21.5589 15.1398 21.8319 15.181 22.1352 15.181ZM22.1352 7.4785C21.8579 7.4785 21.6131 7.51967 21.4007 7.602C21.1927 7.68433 21.0172 7.797 20.8742 7.94C20.7356 8.083 20.6294 8.24983 20.5557 8.4405C20.4864 8.63117 20.4517 8.83483 20.4517 9.0515C20.4517 9.26383 20.4821 9.46967 20.5427 9.669C20.6034 9.86833 20.7009 10.046 20.8352 10.202C20.9696 10.3537 21.1429 10.4772 21.3552 10.5725C21.5719 10.6635 21.8319 10.709 22.1352 10.709C22.4386 10.709 22.6964 10.6635 22.9087 10.5725C23.1254 10.4772 23.3009 10.3537 23.4352 10.202C23.5696 10.046 23.6671 9.86833 23.7277 9.669C23.7884 9.46967 23.8187 9.26383 23.8187 9.0515C23.8187 8.83483 23.7819 8.63117 23.7082 8.4405C23.6389 8.24983 23.5327 8.083 23.3897 7.94C23.2511 7.797 23.0756 7.68433 22.8632 7.602C22.6552 7.51967 22.4126 7.4785 22.1352 7.4785ZM23.4677 11.1445C24.0484 11.3092 24.4947 11.5843 24.8067 11.97C25.1187 12.3557 25.2747 12.8497 25.2747 13.452C25.2747 13.8593 25.1967 14.2277 25.0407 14.557C24.8891 14.882 24.6746 15.1593 24.3972 15.389C24.1242 15.6187 23.7949 15.7963 23.4092 15.922C23.0236 16.0433 22.5989 16.104 22.1352 16.104C21.6716 16.104 21.2469 16.0433 20.8612 15.922C20.4756 15.7963 20.1441 15.6187 19.8667 15.389C19.5894 15.1593 19.3749 14.882 19.2232 14.557C19.0716 14.2277 18.9957 13.8593 18.9957 13.452C18.9957 12.8497 19.1517 12.3557 19.4637 11.97C19.7757 11.5843 20.2221 11.3092 20.8027 11.1445C20.3131 10.9625 19.9426 10.6917 19.6912 10.332C19.4442 9.968 19.3207 9.53467 19.3207 9.032C19.3207 8.68967 19.3879 8.369 19.5222 8.07C19.6566 7.771 19.8472 7.511 20.0942 7.29C20.3412 7.069 20.6359 6.89567 20.9782 6.77C21.3249 6.64433 21.7106 6.5815 22.1352 6.5815C22.5556 6.5815 22.9391 6.64433 23.2857 6.77C23.6324 6.89567 23.9292 7.069 24.1762 7.29C24.4232 7.511 24.6139 7.771 24.7482 8.07C24.8826 8.369 24.9497 8.68967 24.9497 9.032C24.9497 9.53467 24.8241 9.968 24.5727 10.332C24.3257 10.6917 23.9574 10.9625 23.4677 11.1445ZM30.5993 8.9345C30.5993 9.2985 30.5429 9.62567 30.4303 9.916C30.3176 10.202 30.1659 10.4447 29.9753 10.644C29.7889 10.839 29.5701 10.9885 29.3188 11.0925C29.0718 11.1965 28.8096 11.2485 28.5323 11.2485C28.2419 11.2485 27.9711 11.1965 27.7198 11.0925C27.4684 10.9885 27.2496 10.839 27.0633 10.644C26.8813 10.4447 26.7383 10.202 26.6343 9.916C26.5303 9.62567 26.4783 9.2985 26.4783 8.9345C26.4783 8.56183 26.5303 8.23033 26.6343 7.94C26.7383 7.64967 26.8813 7.40483 27.0633 7.2055C27.2496 7.00617 27.4684 6.8545 27.7198 6.7505C27.9711 6.6465 28.2419 6.5945 28.5323 6.5945C28.8269 6.5945 29.0999 6.6465 29.3513 6.7505C29.6026 6.8545 29.8214 7.00617 30.0078 7.2055C30.1941 7.40483 30.3393 7.64967 30.4433 7.94C30.5473 8.23033 30.5993 8.56183 30.5993 8.9345ZM29.7023 8.9345C29.7023 8.6485 29.6719 8.40583 29.6113 8.2065C29.5506 8.00717 29.4661 7.84467 29.3578 7.719C29.2538 7.589 29.1303 7.49583 28.9873 7.4395C28.8443 7.38317 28.6926 7.355 28.5323 7.355C28.3719 7.355 28.2224 7.38317 28.0838 7.4395C27.9451 7.49583 27.8238 7.589 27.7198 7.719C27.6158 7.84467 27.5334 8.00717 27.4728 8.2065C27.4121 8.40583 27.3818 8.6485 27.3818 8.9345C27.3818 9.21617 27.4121 9.45667 27.4728 9.656C27.5334 9.851 27.6158 10.0113 27.7198 10.137C27.8238 10.2583 27.9451 10.3472 28.0838 10.4035C28.2224 10.4555 28.3719 10.4815 28.5323 10.4815C28.6926 10.4815 28.8443 10.4555 28.9873 10.4035C29.1303 10.3472 29.2538 10.2583 29.3578 10.137C29.4661 10.0113 29.5506 9.851 29.6113 9.656C29.6719 9.45667 29.7023 9.21617 29.7023 8.9345ZM33.8948 6.8805C33.9381 6.8285 33.9879 6.783 34.0443 6.744C34.1049 6.705 34.1851 6.6855 34.2848 6.6855H35.1233L28.3113 15.8115C28.2723 15.8678 28.2224 15.9133 28.1618 15.948C28.1011 15.9827 28.0274 16 27.9408 16H27.0893L33.8948 6.8805ZM35.7538 13.803C35.7538 14.167 35.6974 14.492 35.5848 14.778C35.4721 15.064 35.3204 15.3067 35.1298 15.506C34.9434 15.701 34.7246 15.8505 34.4733 15.9545C34.2263 16.0585 33.9641 16.1105 33.6868 16.1105C33.3921 16.1105 33.1191 16.0585 32.8678 15.9545C32.6208 15.8505 32.4041 15.701 32.2178 15.506C32.0358 15.3067 31.8928 15.064 31.7888 14.778C31.6848 14.492 31.6328 14.167 31.6328 13.803C31.6328 13.4303 31.6848 13.0988 31.7888 12.8085C31.8928 12.5138 32.0358 12.2668 32.2178 12.0675C32.4041 11.8682 32.6208 11.7165 32.8678 11.6125C33.1191 11.5085 33.3921 11.4565 33.6868 11.4565C33.9771 11.4565 34.2479 11.5085 34.4993 11.6125C34.7549 11.7165 34.9738 11.8682 35.1558 12.0675C35.3421 12.2668 35.4873 12.5138 35.5913 12.8085C35.6996 13.0988 35.7538 13.4303 35.7538 13.803ZM34.8568 13.803C34.8568 13.517 34.8264 13.2743 34.7658 13.075C34.7051 12.8713 34.6206 12.7067 34.5123 12.581C34.4083 12.4553 34.2848 12.3643 34.1418 12.308C33.9988 12.2517 33.8471 12.2235 33.6868 12.2235C33.5264 12.2235 33.3748 12.2517 33.2318 12.308C33.0931 12.3643 32.9718 12.4553 32.8678 12.581C32.7638 12.7067 32.6814 12.8713 32.6207 13.075C32.5644 13.2743 32.5363 13.517 32.5363 13.803C32.5363 14.0847 32.5644 14.323 32.6207 14.518C32.6814 14.713 32.7638 14.8733 32.8678 14.999C32.9718 15.1203 33.0931 15.2092 33.2318 15.2655C33.3748 15.3175 33.5264 15.3435 33.6868 15.3435C33.8471 15.3435 33.9988 15.3175 34.1418 15.2655C34.2848 15.2092 34.4083 15.1203 34.5123 14.999C34.6206 14.8733 34.7051 14.713 34.7658 14.518C34.8264 14.323 34.8568 14.0847 34.8568 13.803Z" fill="white"/>
</svg>
